<svg xmlns="http://www.w3.org/2000/svg" viewBox="0 0 512 512" width="32" height="32"><path d="M331 352l78-192h-52l-53 124-38-124h-40l-40 124-29-57-26 79 26 45h51l37-111 35 111zM0 160v192h49v-66h32a93 93 0 0026-3l8-25 23-70a56 56 0 00-6-8c-13-14-30-20-52-20zm49 37h18c11 0 19 2 23 7 5 5 7 11 7 18 0 8-2 14-6 19s-13 8-24 8H49z"/><path fill="#ff5d01" d="M412 160l-35 86c1.4 1.5 2.5 3.5 3.1 6l34 104c54 0 90 22 90 22l-77-208c-2.1-6-6.1-10-10.1-10zm-97 200c-6 20-1.8 48 13 61a53 53 0 01.6-2 17 17 0 0117-14c8.47.303 13 4.5 14 14.218.605 3.328.605 6.958.605 11v1.2c0 8 2 16 6.7 22a39 39 0 0017.242 15v-.9l-.6-.9c-5.445-16.9-1.5-28.7 13.3-39l4.5-3a220 220 0 0010-6.7 48 48 0 0020-34c.908-6.05.303-12.1-1.8-18l-2.4 1.8-4.8 3a112 112 0 01-68 8c-15-2-29-6-40-19z"/></svg>