<svg xmlns="http://www.w3.org/2000/svg" viewBox="0 0 512 512" width="32" height="32">
<path d="M330.7 352l77.72-192H356.9l-53.16 124.07L265.93 160h-39.61l-40.58 124.07-28.63-56.53-25.9 79.46 26.3 45h50.7l36.68-111.27 35 111.27zM0 160v192h48.79v-65.91h31.65a93.39 93.39 0 0025.62-3.21l8.18-25.19 22.88-70.39a55.75 55.75 0 00-6-7.82C119.4 166.493 102.223 160 79.59 160zm48.79 37.25h18.42c11.06 0 18.887 2.307 23.48 6.92 4.593 4.613 6.887 10.787 6.88 18.52-.007 7.733-2.007 13.91-6 18.53-4.427 5.08-12.573 7.617-24.44 7.61H48.79z"/>
<path fill="#ff5d01" d="M411.811 160l-34.747 85.842c1.411 1.512 2.524 3.536 3.1 5.98l33.562 104.166c53.509 0 90.235 22.163 90.235 22.163l-76.62-208.018C425.125 163.8 421.324 160 416.575 160zM315.12 360.236c-6.05 19.966-1.816 47.796 12.705 61.107a52.939 52.939 0 01.605-2.118 16.638 16.638 0 0117.243-13.613c8.47.303 13.007 4.538 14.217 14.218.605 3.328.605 6.958.605 10.588v1.21c0 8.168 2.118 15.73 6.656 22.385a39.326 39.326 0 0017.242 14.823v-.907l-.605-.908c-5.445-16.94-1.512-28.738 13.31-38.72l4.538-3.026a220.83 220.83 0 009.68-6.655 48.401 48.401 0 0020.571-34.486c.908-6.05.303-12.1-1.815-18.15l-2.42 1.815-4.84 3.025a111.928 111.928 0 01-67.762 8.168c-15.125-2.118-29.343-6.05-39.93-18.756z"/>
</svg>
